<mxfile host="app.diagrams.net" modified="2024-08-10T09:05:16.721Z" agent="Mozilla/5.0 (Windows NT 10.0; Win64; x64) AppleWebKit/537.36 (KHTML, like Gecko) Chrome/122.0.0.0 Safari/537.36 Edg/122.0.0.0" version="24.5.2" etag="4KYn9Ab9peDDBBQXT_WP" type="github">
  <diagram name="第 1 页" id="Z0p8Feym8fy-RED_jfXA">
    <mxGraphModel>
      <root>
        <mxCell id="0" />
        <mxCell id="1" parent="0" />
      </root>
    </mxGraphModel>
  </diagram>
</mxfile>
